<svg width="38" height="37" viewBox="0 0 38 37" fill="none" xmlns="http://www.w3.org/2000/svg">
<g filter="url(#filter0_d_130_10)">
<path d="M26.3259 0C26.9 0.105002 27.4799 0.171319 28.0423 0.32606C30.3035 0.9616 31.9847 2.28242 33.0802 4.25535C33.7363 5.43801 34.0058 6.70356 33.9999 8.03544C33.994 12.1416 33.9999 16.2477 33.9999 20.3539C33.9999 22.15 33.4668 23.7913 32.2952 25.2116C30.614 27.2398 28.3879 28.2677 25.6639 28.2898C23.2738 28.3119 20.8838 28.2953 18.4878 28.2953C16.4961 28.2953 14.5044 28.2953 12.5126 28.2953C9.56604 28.2898 7.20525 27.1845 5.48299 24.9187C4.46955 23.5868 4.00676 22.0726 4.00676 20.4368C4.00091 16.2256 3.99505 12.02 4.00676 7.80885C4.01848 4.38799 6.32069 1.42029 9.77107 0.381324C10.3862 0.198952 11.0423 0.127108 11.6808 0C16.5605 0 21.4461 0 26.3259 0ZM19.0033 25.7808C19.0033 25.7863 19.0033 25.7863 19.0033 25.7808C21.0712 25.7863 23.1391 25.7863 25.2129 25.7863C25.9861 25.7863 26.7535 25.7532 27.4916 25.51C29.8583 24.7363 31.3228 22.791 31.3345 20.3649C31.3462 16.2311 31.3404 12.0974 31.3404 7.96359C31.3404 6.96883 31.1295 6.01829 30.5788 5.16722C29.4306 3.37665 27.7201 2.51453 25.5175 2.509C21.1649 2.50347 16.8124 2.509 12.4599 2.509C11.5929 2.509 10.7435 2.63058 9.95853 2.99533C7.79106 4.00667 6.68389 5.67012 6.67217 7.94149C6.64874 12.0863 6.66631 16.2311 6.67217 20.3704C6.67217 21.3652 6.88892 22.3102 7.45129 23.1613C8.58775 24.8966 10.2573 25.7698 12.4189 25.7808C14.6098 25.7919 16.8066 25.7808 19.0033 25.7808Z" fill="white"/>
<path d="M26.7367 14.1643C26.6957 18.2151 23.1926 21.4813 18.9513 21.437C14.7042 21.3928 11.248 18.0936 11.2773 14.109C11.3066 10.1023 14.8097 6.8141 19.0216 6.85279C23.339 6.89147 26.7133 10.1521 26.7367 14.1643ZM18.9748 18.9225C21.7808 18.9391 24.0654 16.8004 24.0654 14.1532C24.0713 11.5226 21.8159 9.39495 19.0041 9.37837C16.2449 9.36179 13.9661 11.495 13.9427 14.1256C13.9193 16.7451 16.1805 18.9059 18.9748 18.9225Z" fill="white"/>
<path d="M27.0295 4.73616C28.0898 4.70828 28.9744 5.52794 29.0095 6.57621C29.0388 7.55199 28.1543 8.41625 27.1116 8.43855C26.0278 8.46086 25.1316 7.65235 25.1023 6.62639C25.0788 5.61158 25.94 4.76404 27.0295 4.73616Z" fill="white"/>
</g>
<defs>
<filter id="filter0_d_130_10" x="0" y="0" width="38" height="36.3013" filterUnits="userSpaceOnUse" color-interpolation-filters="sRGB">
<feFlood flood-opacity="0" result="BackgroundImageFix"/>
<feColorMatrix in="SourceAlpha" type="matrix" values="0 0 0 0 0 0 0 0 0 0 0 0 0 0 0 0 0 0 127 0" result="hardAlpha"/>
<feOffset dy="4"/>
<feGaussianBlur stdDeviation="2"/>
<feComposite in2="hardAlpha" operator="out"/>
<feColorMatrix type="matrix" values="0 0 0 0 0 0 0 0 0 0 0 0 0 0 0 0 0 0 0.25 0"/>
<feBlend mode="normal" in2="BackgroundImageFix" result="effect1_dropShadow_130_10"/>
<feBlend mode="normal" in="SourceGraphic" in2="effect1_dropShadow_130_10" result="shape"/>
</filter>
</defs>
</svg>
